<svg width="31" height="19" viewBox="0 0 31 19" fill="none" xmlns="http://www.w3.org/2000/svg">
<path d="M6.50862 4.90942L1.83614 4.87259C1.3498 4.87236 0.953352 5.26261 0.945912 5.74889C0.943527 6.23611 1.33502 6.63382 1.82222 6.63912L2.26385 6.6426C2.75013 6.65004 3.14038 7.04649 3.14015 7.53283C3.13486 8.02003 2.73715 8.41152 2.24992 8.40913L0.925026 8.39869C0.438685 8.39846 0.0422381 8.78871 0.0347982 9.27499C0.0324133 9.76221 0.423903 10.1599 0.911102 10.1652L3.5609 10.1861C4.04718 10.1935 4.43743 10.59 4.4372 11.0763C4.43191 11.5635 4.0342 11.955 3.54697 11.9526L3.10534 11.9492C2.619 11.9489 2.22255 12.3392 2.21511 12.8255C2.21273 13.3127 2.60422 13.7104 3.09142 13.7157L6.90271 13.7457L6.50862 4.90942Z" fill="#E64C3C"/>
<path d="M13.8416 0C9.09446 0.002279 5.24524 3.8515 5.24524 8.60091V12.653C5.24524 12.8672 5.34552 13.0677 5.51644 13.1976L9.21297 16.0031V18.3163C9.21297 18.6946 9.51836 19 9.89667 19H10.4459C10.8242 19 11.1296 18.6946 11.1296 18.3163V17.3774C11.1296 17.1381 11.3233 16.9443 11.5626 16.9443C11.8019 16.9443 11.9956 17.1381 11.9956 17.3774V18.3163C11.9956 18.6946 12.301 19 12.6793 19H12.7021C13.0804 19 13.3858 18.6946 13.3858 18.3163V17.3774C13.3858 17.1381 13.5795 16.9443 13.8188 16.9443H13.8644C14.1037 16.9443 14.2974 17.1381 14.2974 17.3774V18.3163C14.2974 18.6946 14.6028 19 14.9811 19H15.0039C15.3822 19 15.6876 18.6946 15.6876 18.3163V17.3774C15.6876 17.1381 15.8813 16.9443 16.1206 16.9443C16.3599 16.9443 16.5536 17.1381 16.5536 17.3774V18.3163C16.5536 18.6946 16.859 19 17.2373 19H17.7888C18.1671 19 18.4725 18.6946 18.4725 18.3163V16.0008L22.1691 13.1954C22.34 13.0655 22.4402 12.8649 22.4402 12.6507V8.59866C22.438 3.8515 18.5888 0.002279 13.8416 0ZM10.2476 12.7191C8.93949 12.7191 7.87748 11.6571 7.87748 10.3489C7.87748 9.0408 8.93949 7.97877 10.2476 7.97877C11.5558 7.97877 12.6178 9.0408 12.6178 10.3489C12.6178 11.6593 11.5558 12.7191 10.2476 12.7191ZM14.5162 14.4625H13.1693C12.8571 14.4625 12.6588 14.1275 12.8092 13.854L13.4838 12.6302C13.6388 12.3476 14.0467 12.3476 14.2017 12.6302L14.8763 13.854C15.0244 14.1275 14.8261 14.4625 14.5162 14.4625ZM17.4356 12.7191C16.1274 12.7191 15.0654 11.6571 15.0654 10.3489C15.0654 9.0408 16.1274 7.97877 17.4356 7.97877C18.7437 7.97877 19.8057 9.0408 19.8057 10.3489C19.8057 11.6593 18.746 12.7191 17.4356 12.7191Z" fill="white"/>
<g clip-path="url(#clip0)">
<path d="M24.931 10.6868V10.5015H24.6846V8.50734H24.931V8.31305H28.025V10.6868H24.931Z" fill="white"/>
<path d="M24.2622 10.6868H23.5864V8.31305H24.2622V10.6868Z" fill="white"/>
<path d="M30.7028 9.62422C30.5474 9.83751 30.3501 10.0279 30.1165 10.1902C29.649 10.515 29.0929 10.6868 28.5083 10.6868H28.4473V8.31305H28.5083C28.8006 8.31305 29.0857 8.356 29.3563 8.43948C29.6269 8.52311 29.8828 8.64729 30.1165 8.80962C30.3501 8.97195 30.5474 9.1623 30.7028 9.37561L30.7933 9.4999L30.7028 9.62422Z" fill="white"/>
</g>
<defs>
<clipPath id="clip0">
<rect width="7.2069" height="7.2069" fill="white" transform="matrix(1 0 0 -1 23.5864 13.1034)"/>
</clipPath>
</defs>
</svg>
